<?xml version="1.0" standalone="no"?>
<!DOCTYPE svg PUBLIC "-//W3C//DTD SVG 20010904//EN"
 "http://www.w3.org/TR/2001/REC-SVG-20010904/DTD/svg10.dtd">
<svg version="1.0" xmlns="http://www.w3.org/2000/svg"
 width="32.000000pt" height="32.000000pt" viewBox="0 0 32.000000 32.000000"
 preserveAspectRatio="xMidYMid meet">

<g transform="translate(0.000000,32.000000) scale(0.100000,-0.100000)"
fill="#000000" stroke="none">
<path d="M4 237 c-3 -8 -4 -47 -2 -88 l3 -74 95 -3 c112 -3 120 2 120 86 0 88
-5 92 -116 92 -70 0 -96 -3 -100 -13z"/>
<path d="M258 214 c-23 -12 -28 -21 -28 -54 0 -34 4 -42 30 -55 55 -28 61 -23
58 52 -3 75 -12 84 -60 57z"/>
</g>
</svg>
