<?xml version="1.0" standalone="no"?>
<!DOCTYPE svg PUBLIC "-//W3C//DTD SVG 20010904//EN"
 "http://www.w3.org/TR/2001/REC-SVG-20010904/DTD/svg10.dtd">
<svg version="1.0" xmlns="http://www.w3.org/2000/svg"
 width="128.000000pt" height="128.000000pt" viewBox="0 0 128.000000 128.000000"
 preserveAspectRatio="xMidYMid meet">

<g transform="translate(0.000000,128.000000) scale(0.100000,-0.100000)"
fill="#000000" stroke="none">
<path d="M442 908 c-31 -31 -14 -63 87 -161 54 -53 104 -97 111 -97 7 0 57 44
111 97 101 98 118 130 87 161 -27 27 -62 13 -130 -55 l-68 -67 -68 67 c-68 68
-103 82 -130 55z"/>
<path d="M452 614 c-44 -30 -30 -61 71 -162 67 -67 99 -92 117 -92 36 0 210
175 210 211 0 32 -17 49 -49 49 -18 0 -45 -20 -93 -67 l-67 -67 -75 72 c-40
40 -78 72 -83 72 -5 0 -19 -7 -31 -16z"/>
</g>
</svg>
