<?xml version="1.0" standalone="no"?>
<!DOCTYPE svg PUBLIC "-//W3C//DTD SVG 20010904//EN"
 "http://www.w3.org/TR/2001/REC-SVG-20010904/DTD/svg10.dtd">
<svg version="1.0" xmlns="http://www.w3.org/2000/svg"
 width="90.000000pt" height="90.000000pt" viewBox="0 0 90.000000 90.000000"
 preserveAspectRatio="xMidYMid meet">

<g transform="translate(0.000000,90.000000) scale(0.100000,-0.100000)"
fill="#000000" stroke="none">
<path d="M20 700 c-19 -19 -20 -33 -20 -250 0 -217 1 -231 20 -250 19 -19 33
-20 295 -20 262 0 276 1 295 20 19 19 20 33 20 250 0 217 -1 231 -20 250 -19
19 -33 20 -295 20 -262 0 -276 -1 -295 -20z"/>
<path d="M772 583 l-83 -78 1 -57 0 -56 85 -77 c123 -112 120 -115 120 135 0
251 2 249 -123 133z"/>
</g>
</svg>
